# Blender v2.93.2 OBJ File: ''
# www.blender.org
mtllib door_b2.mtl
o Cube_Cube.003_Cube_Cube.004
v 0.500000 1.500000 -0.500000
v 0.500000 1.500000 -0.312000
v 0.500000 0.500000 -0.312000
v 0.500000 0.500000 -0.500000
v -0.500000 0.500000 -0.312000
v -0.500000 0.500000 -0.500000
v -0.500000 1.500000 -0.312000
v -0.500000 1.500000 -0.500000
vt 0.074219 0.625000
vt 0.062500 0.625000
vt 0.062500 0.562500
vt 0.074219 0.562500
vt 0.062500 0.613281
vt 0.062500 0.625000
vt 0.125000 0.625000
vt 0.125000 0.613281
vt 0.062500 0.562500
vt 0.074219 0.562500
vt 0.074219 0.625000
vt 0.062500 0.625000
vt 0.062500 0.613281
vt 0.125000 0.613281
vt 0.125000 0.625000
vt 0.125000 0.625000
vt 0.062500 0.625000
vt 0.062500 0.687500
vt 0.125000 0.687500
vt 0.062500 0.625000
vt 0.125000 0.625000
vt 0.125000 0.687500
vt 0.062500 0.687500
vn 1.0000 0.0000 0.0000
vn 0.0000 -1.0000 0.0000
vn -1.0000 0.0000 0.0000
vn 0.0000 1.0000 0.0000
vn 0.0000 0.0000 -1.0000
vn 0.0000 -0.0000 1.0000
usemtl None.004
s 1
f 1/1/1 2/2/1 3/3/1 4/4/1
f 4/5/2 3/6/2 5/7/2 6/8/2
f 6/9/3 5/10/3 7/11/3 8/12/3
f 8/12/4 7/13/4 2/14/4 1/15/4
f 4/16/5 6/17/5 8/18/5 1/19/5
f 5/20/6 3/21/6 2/22/6 7/23/6
o Cube_Cube.001_Cube_Cube.005
v 0.500000 0.500000 -0.500000
v 0.500000 0.500000 -0.312000
v 0.500000 -0.500000 -0.312000
v 0.500000 -0.500000 -0.500000
v -0.500000 -0.500000 -0.312000
v -0.500000 -0.500000 -0.500000
v -0.500000 0.500000 -0.312000
v -0.500000 0.500000 -0.500000
vt 0.074219 0.625000
vt 0.062500 0.625000
vt 0.062500 0.562500
vt 0.074219 0.562500
vt 0.062500 0.613281
vt 0.062500 0.625000
vt 0.125000 0.625000
vt 0.125000 0.613281
vt 0.062500 0.562500
vt 0.074219 0.562500
vt 0.074219 0.625000
vt 0.062500 0.625000
vt 0.062500 0.613281
vt 0.125000 0.613281
vt 0.125000 0.625000
vt 0.125000 0.562500
vt 0.062500 0.562500
vt 0.125000 0.562500
vt 0.125000 0.625000
vt 0.062500 0.625000
vn 1.0000 0.0000 0.0000
vn 0.0000 -1.0000 -0.0000
vn -1.0000 0.0000 0.0000
vn 0.0000 1.0000 0.0000
vn 0.0000 0.0000 -1.0000
vn 0.0000 -0.0000 1.0000
usemtl None.004
s 1
f 9/24/7 10/25/7 11/26/7 12/27/7
f 12/28/8 11/29/8 13/30/8 14/31/8
f 14/32/9 13/33/9 15/34/9 16/35/9
f 16/35/10 15/36/10 10/37/10 9/38/10
f 12/39/11 14/32/11 16/35/11 9/38/11
f 13/40/12 11/41/12 10/42/12 15/43/12
